<mxfile host="app.diagrams.net" agent="Mozilla/5.0 (Windows NT 10.0; Win64; x64) AppleWebKit/537.36 (KHTML, like Gecko) Chrome/135.0.0.0 Safari/537.36" version="26.2.13">
  <diagram name="Page-1" id="IMO2TLgsnevTP4iu9Ftm">
    <mxGraphModel dx="786" dy="403" grid="1" gridSize="10" guides="1" tooltips="1" connect="1" arrows="1" fold="1" page="1" pageScale="1" pageWidth="850" pageHeight="1100" math="0" shadow="0">
      <root>
        <mxCell id="0" />
        <mxCell id="1" parent="0" />
        <mxCell id="hCDq0x173k0NtZdVIP5t-3" style="edgeStyle=orthogonalEdgeStyle;rounded=0;orthogonalLoop=1;jettySize=auto;html=1;exitX=0.5;exitY=1;exitDx=0;exitDy=0;exitPerimeter=0;entryX=0.5;entryY=0;entryDx=0;entryDy=0;" edge="1" parent="1" source="hCDq0x173k0NtZdVIP5t-1" target="hCDq0x173k0NtZdVIP5t-2">
          <mxGeometry relative="1" as="geometry" />
        </mxCell>
        <mxCell id="hCDq0x173k0NtZdVIP5t-1" value="&lt;b&gt;Start&lt;/b&gt;" style="strokeWidth=2;html=1;shape=mxgraph.flowchart.start_1;whiteSpace=wrap;" vertex="1" parent="1">
          <mxGeometry x="375" y="10" width="100" height="60" as="geometry" />
        </mxCell>
        <mxCell id="hCDq0x173k0NtZdVIP5t-5" style="edgeStyle=orthogonalEdgeStyle;rounded=0;orthogonalLoop=1;jettySize=auto;html=1;exitX=0.5;exitY=1;exitDx=0;exitDy=0;entryX=0.5;entryY=0;entryDx=0;entryDy=0;" edge="1" parent="1" source="hCDq0x173k0NtZdVIP5t-2" target="hCDq0x173k0NtZdVIP5t-4">
          <mxGeometry relative="1" as="geometry" />
        </mxCell>
        <mxCell id="hCDq0x173k0NtZdVIP5t-2" value="&lt;b&gt;Get index of refraction from user&lt;/b&gt;" style="shape=parallelogram;html=1;strokeWidth=2;perimeter=parallelogramPerimeter;whiteSpace=wrap;rounded=1;arcSize=12;size=0.23;" vertex="1" parent="1">
          <mxGeometry x="298" y="90" width="255" height="60" as="geometry" />
        </mxCell>
        <mxCell id="hCDq0x173k0NtZdVIP5t-7" style="edgeStyle=orthogonalEdgeStyle;rounded=0;orthogonalLoop=1;jettySize=auto;html=1;exitX=0.5;exitY=1;exitDx=0;exitDy=0;entryX=0.5;entryY=0;entryDx=0;entryDy=0;" edge="1" parent="1" source="hCDq0x173k0NtZdVIP5t-4" target="hCDq0x173k0NtZdVIP5t-6">
          <mxGeometry relative="1" as="geometry" />
        </mxCell>
        <mxCell id="hCDq0x173k0NtZdVIP5t-4" value="&lt;b&gt;Calculate speed of light in specified medium using the equation: v = c/n&lt;/b&gt;" style="rounded=1;whiteSpace=wrap;html=1;absoluteArcSize=1;arcSize=14;strokeWidth=2;" vertex="1" parent="1">
          <mxGeometry x="345" y="170" width="160" height="100" as="geometry" />
        </mxCell>
        <mxCell id="hCDq0x173k0NtZdVIP5t-6" value="&lt;b&gt;Display speed of light&lt;/b&gt;&lt;div&gt;&lt;b style=&quot;background-color: transparent; color: light-dark(rgb(0, 0, 0), rgb(255, 255, 255));&quot;&gt;in specified medium&lt;/b&gt;&lt;/div&gt;" style="shape=parallelogram;html=1;strokeWidth=2;perimeter=parallelogramPerimeter;whiteSpace=wrap;rounded=1;arcSize=12;size=0.23;" vertex="1" parent="1">
          <mxGeometry x="330" y="290" width="190" height="60" as="geometry" />
        </mxCell>
        <mxCell id="hCDq0x173k0NtZdVIP5t-8" value="&lt;b&gt;End&lt;/b&gt;" style="strokeWidth=2;html=1;shape=mxgraph.flowchart.start_1;whiteSpace=wrap;" vertex="1" parent="1">
          <mxGeometry x="375" y="370" width="100" height="60" as="geometry" />
        </mxCell>
        <mxCell id="hCDq0x173k0NtZdVIP5t-9" style="edgeStyle=orthogonalEdgeStyle;rounded=0;orthogonalLoop=1;jettySize=auto;html=1;exitX=0.5;exitY=1;exitDx=0;exitDy=0;entryX=0.5;entryY=0;entryDx=0;entryDy=0;entryPerimeter=0;" edge="1" parent="1" source="hCDq0x173k0NtZdVIP5t-6" target="hCDq0x173k0NtZdVIP5t-8">
          <mxGeometry relative="1" as="geometry" />
        </mxCell>
      </root>
    </mxGraphModel>
  </diagram>
</mxfile>
